<svg xmlns="http://www.w3.org/2000/svg" xmlns:xlink="http://www.w3.org/1999/xlink" width="500" zoomAndPan="magnify" viewBox="0 0 375 374.999991" height="500" preserveAspectRatio="xMidYMid meet" version="1.0"><defs><g/><clipPath id="28290fec4a"><path d="M 118.792969 87.488281 L 256.042969 87.488281 L 256.042969 221.738281 L 118.792969 221.738281 Z M 118.792969 87.488281 " clip-rule="nonzero"/></clipPath></defs><g clip-path="url(#28290fec4a)"><path fill="#8c52ff" d="M 202.613281 124.960938 C 197.804688 124.742188 192.996094 124.164062 188.1875 123.039062 C 185.410156 114.710938 174.253906 113.007812 174.996094 99.347656 C 177.878906 111.769531 195.46875 114.351562 202.613281 124.960938 Z M 246.449219 180.148438 C 239.113281 178.222656 242.136719 173.054688 248.125 173.441406 C 240.789062 168.21875 235.15625 173.660156 228.914062 172.257812 C 220.175781 170.308594 219.929688 160.167969 210.667969 159.148438 C 223.613281 163.65625 211.929688 185.835938 228.3125 190.535156 C 223.035156 184.683594 226.691406 179.925781 234.109375 184.378906 C 236.777344 185.972656 239.058594 188.035156 241.503906 188.0625 C 246.53125 188.117188 251.398438 183.335938 256.207031 188.199219 C 255.902344 180.613281 250.515625 181.246094 246.449219 180.148438 Z M 241.449219 191.773438 C 241.503906 191.773438 241.558594 191.773438 241.613281 191.773438 C 229.601562 209.773438 209.101562 221.617188 185.851562 221.617188 C 148.832031 221.617188 118.792969 191.578125 118.792969 154.5625 C 118.792969 134.609375 127.53125 116.660156 141.382812 104.378906 C 141.851562 108.003906 142.8125 111.359375 144.160156 114.464844 C 134.15625 124.851562 128 138.976562 128 154.5625 C 128 165.417969 131.023438 175.585938 136.214844 184.269531 C 134.210938 175.394531 135.5 164.097656 142.289062 156.101562 C 138.9375 156.511719 135.667969 157.640625 132.421875 159.234375 C 136.902344 151.398438 144.105469 145.628906 153.035156 141.203125 C 149.546875 139.390625 145.617188 138.375 141.191406 138.152344 C 146.496094 134.992188 152.679688 132.929688 159.824219 132.132812 C 164.304688 134.167969 169.085938 135.238281 174.226562 135.183594 C 156.277344 127.214844 145.644531 115.808594 145.585938 99.429688 C 154.683594 118.503906 178.347656 127.050781 199.785156 128.617188 C 216.191406 129.796875 211.300781 139.445312 219.40625 145.160156 L 216.355469 148.488281 C 219.105469 147.992188 221.6875 148.101562 224.242188 148.378906 L 222.292969 151.179688 C 239.386719 148.378906 241.667969 157.804688 226.332031 164.839844 C 227.789062 155.578125 212.894531 150.933594 197.394531 153.132812 C 209.074219 155.246094 201.761719 169.8125 214.433594 167.808594 C 210.914062 173.195312 206.214844 175.199219 200.332031 174.019531 C 207.808594 164.480469 194.945312 155.054688 178.15625 160.714844 C 175.433594 155.46875 176.972656 150.601562 182.800781 146.125 C 145.09375 149.449219 153.253906 197.820312 185.824219 212.4375 C 191.648438 212.4375 197.28125 211.558594 202.558594 209.964844 C 174.941406 202.765625 152.539062 167.230469 171.09375 154.835938 C 159.410156 175.640625 191.703125 199.550781 220.753906 200.675781 C 225.453125 197.132812 229.574219 192.84375 232.984375 188.0625 C 235.648438 189.765625 238.121094 191.746094 241.449219 191.773438 Z M 229.628906 157.363281 C 229.960938 157.941406 230.152344 158.601562 230.261719 159.261719 C 232.625 156.675781 232.433594 153.1875 229.546875 153.324219 C 226.800781 153.460938 226.964844 157.089844 229.628906 157.363281 Z M 198.933594 137.933594 C 200.773438 139.96875 201.761719 143.046875 204.511719 144.0625 C 207.011719 145.023438 209.898438 144.308594 212.507812 144.859375 C 210.503906 143.429688 209.019531 139.609375 206.710938 138.429688 C 204.511719 137.273438 201.351562 138.648438 198.933594 137.933594 Z M 185.851562 87.503906 C 172.601562 87.503906 160.292969 91.324219 149.902344 97.945312 C 151.277344 100.75 153.035156 103.277344 155.070312 105.558594 C 163.972656 99.953125 174.527344 96.683594 185.851562 96.683594 C 217.8125 96.683594 243.703125 122.597656 243.703125 154.53125 C 243.703125 158.984375 243.207031 163.300781 242.246094 167.476562 C 245.101562 167.667969 247.714844 168.632812 250.242188 170.417969 L 250.875 170.859375 C 252.195312 165.636719 252.878906 160.140625 252.878906 154.503906 C 252.90625 117.542969 222.871094 87.503906 185.851562 87.503906 Z M 185.851562 87.503906 " fill-opacity="1" fill-rule="evenodd"/></g><g fill="#8c52ff" fill-opacity="1"><g transform="translate(107.532001, 261.078307)"><g><path d="M 19.375 -8.90625 C 19.375 -5.96875 18.398438 -3.679688 16.453125 -2.046875 C 14.515625 -0.421875 11.804688 0.390625 8.328125 0.390625 C 6.878906 0.390625 5.503906 0.226562 4.203125 -0.09375 C 2.910156 -0.414062 1.796875 -0.882812 0.859375 -1.5 L 0.859375 -8.453125 C 1.960938 -7.753906 3.234375 -7.164062 4.671875 -6.6875 C 6.109375 -6.207031 7.40625 -5.96875 8.5625 -5.96875 C 9.539062 -5.96875 10.28125 -6.171875 10.78125 -6.578125 C 11.289062 -6.992188 11.546875 -7.578125 11.546875 -8.328125 C 11.546875 -8.679688 11.460938 -9.015625 11.296875 -9.328125 C 11.140625 -9.640625 10.914062 -9.953125 10.625 -10.265625 C 10.34375 -10.578125 9.566406 -11.257812 8.296875 -12.3125 C 6.742188 -13.5625 5.617188 -14.832031 4.921875 -16.125 C 4.222656 -17.425781 3.875 -18.847656 3.875 -20.390625 C 3.875 -22.117188 4.304688 -23.675781 5.171875 -25.0625 C 6.035156 -26.445312 7.253906 -27.519531 8.828125 -28.28125 C 10.410156 -29.039062 12.179688 -29.421875 14.140625 -29.421875 C 17.304688 -29.421875 20.148438 -28.710938 22.671875 -27.296875 L 20 -21.40625 C 17.738281 -22.570312 15.8125 -23.15625 14.21875 -23.15625 C 13.375 -23.15625 12.722656 -22.96875 12.265625 -22.59375 C 11.804688 -22.21875 11.578125 -21.675781 11.578125 -20.96875 C 11.578125 -20.320312 11.796875 -19.71875 12.234375 -19.15625 C 12.679688 -18.59375 13.53125 -17.84375 14.78125 -16.90625 C 16.34375 -15.75 17.5 -14.535156 18.25 -13.265625 C 19 -11.992188 19.375 -10.539062 19.375 -8.90625 Z M 19.375 -8.90625 "/></g></g></g><g fill="#8c52ff" fill-opacity="1"><g transform="translate(126.656287, 261.078307)"><g><path d="M 24.609375 0 L 15.921875 0 L 12.484375 -11.46875 L 10.546875 -10.359375 L 8.40625 0 L 0.65625 0 L 6.78125 -29 L 14.546875 -29 L 11.859375 -16.625 L 12.609375 -17.796875 C 13.773438 -19.679688 14.632812 -20.96875 15.1875 -21.65625 L 21.09375 -29 L 30.1875 -29 L 19.265625 -15.625 Z M 24.609375 0 "/></g></g></g><g fill="#8c52ff" fill-opacity="1"><g transform="translate(150.699061, 261.078307)"><g><path d="M 13.03125 -18.25 L 19.21875 -29 L 27.875 -29 L 15.734375 -11.25 L 13.328125 0 L 5.578125 0 L 7.953125 -11.25 L 3.25 -29 L 11.25 -29 Z M 13.03125 -18.25 "/></g></g></g><g fill="#8c52ff" fill-opacity="1"><g transform="translate(172.104095, 261.078307)"><g><path d="M 17.46875 -22.984375 C 16.039062 -22.984375 14.75 -22.46875 13.59375 -21.4375 C 12.445312 -20.40625 11.546875 -18.984375 10.890625 -17.171875 C 10.242188 -15.359375 9.921875 -13.394531 9.921875 -11.28125 C 9.921875 -9.507812 10.289062 -8.1875 11.03125 -7.3125 C 11.769531 -6.445312 12.832031 -6.015625 14.21875 -6.015625 C 15.320312 -6.015625 16.429688 -6.148438 17.546875 -6.421875 C 18.671875 -6.691406 19.992188 -7.148438 21.515625 -7.796875 L 21.515625 -1.390625 C 18.835938 -0.203125 15.929688 0.390625 12.796875 0.390625 C 9.359375 0.390625 6.707031 -0.585938 4.84375 -2.546875 C 2.988281 -4.515625 2.0625 -7.296875 2.0625 -10.890625 C 2.0625 -14.410156 2.734375 -17.632812 4.078125 -20.5625 C 5.421875 -23.5 7.242188 -25.710938 9.546875 -27.203125 C 11.859375 -28.703125 14.5 -29.453125 17.46875 -29.453125 C 20.976562 -29.453125 24.160156 -28.585938 27.015625 -26.859375 L 24.078125 -20.8125 C 22.847656 -21.539062 21.71875 -22.082031 20.6875 -22.4375 C 19.65625 -22.800781 18.582031 -22.984375 17.46875 -22.984375 Z M 17.46875 -22.984375 "/></g></g></g><g fill="#8c52ff" fill-opacity="1"><g transform="translate(194.560263, 261.078307)"><g><path d="M 17.796875 -29.453125 C 21.234375 -29.453125 23.90625 -28.46875 25.8125 -26.5 C 27.726562 -24.539062 28.6875 -21.804688 28.6875 -18.296875 C 28.6875 -14.773438 28.023438 -11.554688 26.703125 -8.640625 C 25.390625 -5.722656 23.578125 -3.488281 21.265625 -1.9375 C 18.953125 -0.382812 16.269531 0.390625 13.21875 0.390625 C 9.65625 0.390625 6.90625 -0.59375 4.96875 -2.5625 C 3.03125 -4.53125 2.0625 -7.265625 2.0625 -10.765625 C 2.0625 -14.273438 2.742188 -17.492188 4.109375 -20.421875 C 5.472656 -23.359375 7.328125 -25.597656 9.671875 -27.140625 C 12.015625 -28.679688 14.722656 -29.453125 17.796875 -29.453125 Z M 20.84375 -18.203125 C 20.84375 -19.710938 20.523438 -20.894531 19.890625 -21.75 C 19.253906 -22.601562 18.335938 -23.03125 17.140625 -23.03125 C 15.828125 -23.03125 14.617188 -22.472656 13.515625 -21.359375 C 12.421875 -20.253906 11.546875 -18.726562 10.890625 -16.78125 C 10.242188 -14.832031 9.921875 -12.84375 9.921875 -10.8125 C 9.921875 -7.613281 11.242188 -6.015625 13.890625 -6.015625 C 15.140625 -6.015625 16.300781 -6.5625 17.375 -7.65625 C 18.457031 -8.75 19.304688 -10.226562 19.921875 -12.09375 C 20.535156 -13.957031 20.84375 -15.992188 20.84375 -18.203125 Z M 20.84375 -18.203125 "/></g></g></g><g fill="#8c52ff" fill-opacity="1"><g transform="translate(221.359772, 261.078307)"><g><path d="M 10.65625 -10.546875 L 8.40625 0 L 0.65625 0 L 6.78125 -29 L 14.453125 -29 C 17.785156 -29 20.335938 -28.335938 22.109375 -27.015625 C 23.890625 -25.691406 24.78125 -23.703125 24.78125 -21.046875 C 24.78125 -18.984375 24.304688 -17.179688 23.359375 -15.640625 C 22.421875 -14.109375 21.03125 -12.941406 19.1875 -12.140625 L 23.625 -1.90625 L 24.421875 0 L 15.96875 0 L 12.09375 -10.546875 Z M 11.90625 -16.4375 L 12.90625 -16.4375 C 14.164062 -16.4375 15.164062 -16.796875 15.90625 -17.515625 C 16.644531 -18.242188 17.015625 -19.253906 17.015625 -20.546875 C 17.015625 -21.367188 16.785156 -21.992188 16.328125 -22.421875 C 15.878906 -22.847656 15.21875 -23.0625 14.34375 -23.0625 L 13.296875 -23.0625 Z M 11.90625 -16.4375 "/></g></g></g><g fill="#8c52ff" fill-opacity="1"><g transform="translate(244.629076, 261.078307)"><g><path d="M 17.875 0 L 0.65625 0 L 6.78125 -29 L 24 -29 L 22.71875 -22.71875 L 13.25 -22.71875 L 12.3125 -18.15625 L 21.125 -18.15625 L 19.703125 -11.859375 L 10.890625 -11.859375 L 9.765625 -6.390625 L 19.21875 -6.390625 Z M 17.875 0 "/></g></g></g></svg>